PathFileType	4	(X/Y/Z)	C:\Motion Data\9999\Fregly Locomotion Course\Processed\9999bj_kick4.trc
DataRate	CameraRate	NumFrames	NumMarkers	Units	OrigDataRate	OrigDataStartFrame	OrigNumFrames
200.00	200.00	       4	35	mm	200.00	183	       292
Frame#	Time	R_Heel			R_Midfoot_Superior			R_Midfoot_Lateral			R_Toe			L_Heel			L_Midfoot_Superior			L_Midfoot_Lateral			L_Toe			R_Shank_Superior			R_Shank_Inferior			R_Shank_Lateral			R_Shank Posterior			L_Shank_Superior			L_Shank_Inferior			L_Shank_Lateral			L_Shank_Posterior			R_Patella			L_Patella			R_Thigh_Superior			R_Thigh_Inferior			R_Thigh_Lateral			L_Thigh_Superior			L_Thigh_Inferior			L_Thigh_Lateral			R_Asis			L_Asis			Sacral			R_Shoulder			L_Shoulder			Back			R_Elbow			L_Elbow			R_Wrist			L_Wrist			Ball			
		X1	Y1	Z1	X2	Y2	Z2	X3	Y3	Z3	X4	Y4	Z4	X5	Y5	Z5	X6	Y6	Z6	X7	Y7	Z7	X8	Y8	Z8	X9	Y9	Z9	X10	Y10	Z10	X11	Y11	Z11	X12	Y12	Z12	X13	Y13	Z13	X14	Y14	Z14	X15	Y15	Z15	X16	Y16	Z16	X17	Y17	Z17	X18	Y18	Z18	X19	Y19	Z19	X20	Y20	Z20	X21	Y21	Z21	X22	Y22	Z22	X23	Y23	Z23	X24	Y24	Z24	X25	Y25	Z25	X26	Y26	Z26	X27	Y27	Z27	X28	Y28	Z28	X29	Y29	Z29	X30	Y30	Z30	X31	Y31	Z31	X32	Y32	Z32	X33	Y33	Z33	X34	Y34	Z34	X35	Y35	Z35

183	   0.910	  860.16405999999995	  536.16687000000002	  254.39140000000000	 1028.79467999999997	  558.29571999999996	  289.09885000000003	  980.38726999999994	  506.06769000000003	  336.85320999999999	 1125.69153000000006	  497.84433000000001	  301.49506000000002	  352.96109000000001	   50.21881000000000	  180.04105999999999	  535.64306999999997	   93.21156999999999	  170.05100999999999	  479.25912000000000	   29.30692000000000	  118.56159000000000	  633.81890999999996	   51.86483000000000	  174.37629999999999	  834.46149000000003	  871.99419999999998	  285.91692999999998	  905.22375000000000	  725.85186999999996	  290.51605000000001	  811.33398000000000	  767.22240999999997	  331.68905999999998	  734.01422000000002	  781.83507999999995	  248.56623999999999	  505.20731000000001	  386.99765000000002	   83.77728000000000	  489.63164999999998	  234.96152000000001	  120.91864000000000	  436.73239000000001	  313.50076000000001	   31.52408000000000	  385.30889999999999	  206.11372000000000	  112.65673000000000	  775.17804000000001	  996.19806000000005	  265.79779000000002	  535.12097000000006	  490.20285000000001	   53.27205000000000	  536.02722000000006	 1018.27502000000004	  263.09575999999998	  625.49872000000005	 1020.62427000000002	  265.02026000000001	  565.55724999999995	  934.92138999999997	  323.06088000000000	  517.60352000000000	  747.49267999999995	  -28.64761000000000	  532.36743000000001	  631.69104000000004	   13.34508000000000	  434.39343000000002	  650.77666999999997	  -43.44390000000000	  384.12826999999999	 1004.75531000000001	  215.48035999999999	  442.03183000000001	  954.92949999999996	  -39.39674000000000	  238.27394000000001	  981.87761999999998	   57.07489000000000	  344.44653000000000	 1345.44005999999990	  316.71985000000001	  536.19182999999998	 1428.37816999999995	   17.79239000000000	  409.52431999999999	 1442.68665000000010	  117.92740999999999	  161.45600999999999	 1106.09423999999990	  223.99498000000000	  664.66967999999997	 1148.32275000000004	  -58.79357000000000	  105.15270000000000	  847.44628999999998	  218.85462999999999	  718.98113999999998	 1185.68969999999990	  195.27803000000000	                 NaN	                 NaN	                 NaN
184	   0.915	  853.39220999999998	  531.97778000000005	  252.40385000000001	 1022.93469000000005	  549.86279000000002	  286.27132999999998	  972.86023000000000	  498.77175999999997	  334.94824000000000	 1118.47449000000006	  486.71886999999998	  298.54912999999999	  352.83911000000001	   49.57166000000000	  180.58779999999999	  535.58740000000000	   93.00149999999999	  170.07920999999999	  478.95242000000002	   29.18865000000000	  118.54680000000000	  633.79132000000004	   52.11945000000000	  174.21573000000001	  836.09247000000005	  868.68841999999995	  285.47025000000002	  903.08007999999995	  720.57861000000003	  288.99795999999998	  810.51415999999995	  764.56934000000001	  331.36191000000002	  733.33014000000003	  781.42467999999997	  247.98128000000000	  505.83640000000003	  386.93642999999997	   84.07241999999999	  489.89296999999999	  234.92725999999999	  121.40734000000000	  438.06423999999998	  313.78259000000003	   32.09167000000000	  384.91318000000001	  206.04390000000001	  113.17368999999999	  778.95934999999997	  994.30205999999998	  266.09514999999999	  535.73431000000005	  490.17813000000001	   53.97963000000000	  539.43073000000004	 1017.21686000000000	  263.37344000000002	  628.77844000000005	 1018.95074000000000	  267.11559999999997	  568.43340999999998	  933.91003000000001	  324.78555000000000	  519.21966999999995	  747.21538999999996	  -27.94618000000000	  533.71429000000001	  631.17780000000005	   14.37523000000000	  435.32686999999999	  651.34411999999998	  -42.07718000000000	  388.46179000000001	 1005.41869999999994	  217.15771000000001	  443.94089000000002	  955.51520000000005	  -38.54880000000000	  238.62529000000001	  983.39837999999997	   58.01114000000000	  347.07058999999998	 1346.45031999999992	  317.18581999999998	  535.55449999999996	 1430.69726999999989	   15.59346000000000	  410.25565000000000	 1443.60046000000011	  116.76027999999999	  165.05382000000000	 1105.71093999999994	  226.16892999999999	  663.54047000000003	 1150.21460000000002	  -66.82089999999999	  112.44602999999999	  846.21642999999995	  224.91965999999999	  724.63788000000000	 1184.40173000000004	  188.25927999999999	                 NaN	                 NaN	                 NaN
185	   0.920	  846.32097999999996	  528.37829999999997	  250.49617000000001	 1016.39886000000001	  541.09948999999995	  285.20746000000003	  964.88831000000005	  491.42968999999999	  333.04442999999998	 1112.11292000000003	  474.78158999999999	  296.52341000000001	  352.99016999999998	   49.32479000000000	  181.08510999999999	  535.43658000000005	   93.43720000000000	  170.06589000000000	  479.03055000000001	   29.08767000000000	  118.70815000000000	  633.41332999999997	   52.56909000000000	  173.42241999999999	  837.95074000000000	  865.01586999999995	  285.29455999999999	  901.25274999999999	  715.33043999999995	  287.69693000000001	  809.92334000000005	  761.32208000000003	  330.48266999999998	  732.17431999999997	  780.08112000000006	  247.36469000000000	  506.20242000000002	  386.66183000000001	   84.03046999999999	  490.01303000000001	  234.74657999999999	  121.48827000000000	  438.20938000000001	  313.73651000000001	   32.35502000000000	  385.03264999999999	  206.05444000000000	  113.88818000000001	  782.35631999999998	  992.28527999999994	  266.87484999999998	  536.41290000000004	  489.69839000000002	   54.41396000000000	  542.82488999999998	 1015.24017000000003	  263.49286000000001	  631.90215999999998	 1017.43493999999998	  267.65816999999998	  571.65930000000003	  933.00854000000004	  325.82861000000003	  520.43951000000004	  747.30999999999995	  -27.95883000000000	  534.99860000000001	  630.66449000000000	   14.43394000000000	  435.92178000000001	  651.09496999999999	  -41.21773000000000	  391.86957000000001	 1005.18347000000006	  218.65828999999999	  444.98856000000001	  955.17760999999996	  -38.15671000000000	  240.88618000000000	  984.84424000000001	   59.91029000000000	  350.12186000000003	 1348.88757000000010	  316.53710999999998	  535.70270000000005	 1431.37096999999994	   13.43754000000000	  411.28528000000000	 1444.76636000000008	  116.06886000000000	  169.38839999999999	 1105.83716000000004	  230.15356000000000	  663.61090000000002	 1153.74254999999994	  -73.89597000000001	  119.76303000000000	  845.60473999999999	  231.67015000000001	  730.35808999999995	 1182.07250999999997	  178.74431999999999	                 NaN	                 NaN	                 NaN
186	   0.925	  838.47326999999996	  524.48888999999997	  249.65387999999999	 1009.33112000000006	  532.24883999999997	  282.96451000000002	  957.13647000000003	  483.43173000000002	  330.01632999999998	 1100.29467999999997	  466.13126000000000	  293.60410000000002	  352.78897000000001	   48.89363000000000	  181.51129000000000	  535.24914999999999	   93.57174999999999	  169.90621999999999	  479.14139000000000	   28.98152000000000	  118.75333999999999	  633.80327999999997	   53.06988000000000	  172.50403000000000	  839.63585999999998	  860.76288000000000	  285.52643000000000	  898.24890000000005	  709.94556000000000	  287.39870999999999	  808.31817999999998	  757.45258000000001	  329.78629000000001	  731.52472000000000	  778.77477999999996	  247.37006000000000	  506.74054000000001	  386.59125000000000	   84.25285000000000	  490.07418999999999	  234.65517000000000	  121.75763999999999	  437.34014999999999	  314.25085000000001	   33.14071000000000	  384.82297000000000	  206.28258000000000	  115.15397000000000	  786.11699999999996	  989.74652000000003	  267.37128000000001	  537.24676999999997	  489.43151999999998	   54.91087000000000	  546.57190000000003	 1013.97675000000004	  265.09341000000001	  634.98833999999999	 1015.57183999999995	  268.81207000000001	  574.98064999999997	  931.74017000000003	  327.86950999999999	  521.63824000000000	  746.59058000000005	  -27.47015000000000	  536.02319000000000	  630.13329999999996	   15.10781000000000	  437.20528999999999	  651.11596999999995	  -40.10602000000000	  395.16068000000001	 1005.86266999999998	  219.52916999999999	  446.87036000000001	  955.47778000000005	  -38.26225000000000	  243.17779999999999	  986.06970000000001	   62.14622000000000	  353.10190000000000	 1350.22034000000008	  316.06824000000000	  537.35675000000003	 1432.26000999999997	   10.65706000000000	  411.85861000000000	 1446.37475999999992	  115.37367999999999	  172.63181000000000	 1105.65857000000005	  231.72497999999999	  663.80078000000003	 1155.19702000000007	  -80.49401000000000	  128.47089000000000	  844.54596000000004	  237.70806999999999	  736.28992000000005	 1180.07727000000000	  172.40051000000000	                 NaN	                 NaN	                 NaN
